<svg xmlns="http://www.w3.org/2000/svg" width="1500" height="980" viewBox="0 0 1500 980"><defs><linearGradient id="hero" x1="0" y1="0" x2="1" y2="1"><stop offset="0%" stop-color="#0f172a"/><stop offset="100%" stop-color="#2563eb"/></linearGradient></defs><rect width="1500" height="980" fill="#edf2f7"/><rect x="60" y="50" width="1380" height="880" rx="34" fill="#ffffff" stroke="#cbd5e1" stroke-width="2"/><rect x="60" y="50" width="300" height="880" rx="34" fill="#0f172a"/><text x="110" y="120" font-family="Arial, Helvetica, sans-serif" font-size="34" fill="#ffffff" font-weight="700">Next Horizons</text><text x="110" y="155" font-family="Arial, Helvetica, sans-serif" font-size="16" fill="#94a3b8">Due diligence workspace</text><rect x="100" y="210" width="220" height="54" rx="14" fill="#1d4ed8"/><text x="136" y="244" font-family="Arial, Helvetica, sans-serif" font-size="21" fill="#ffffff" font-weight="700">New review</text><g fill="#cbd5e1" font-family="Arial, Helvetica, sans-serif" font-size="21"><text x="110" y="340">Dashboard</text><text x="110" y="390">Cases</text><text x="110" y="440">Screening</text><text x="110" y="490">Reports</text><text x="110" y="540">Monitoring</text><text x="110" y="590">Settings</text></g><text x="420" y="120" font-family="Arial, Helvetica, sans-serif" font-size="42" fill="#0f172a" font-weight="700">AI due diligence dashboard</text><text x="420" y="158" font-family="Arial, Helvetica, sans-serif" font-size="20" fill="#475569">Sanctions, ownership, adverse media and review notes in one place.</text><rect x="420" y="210" width="970" height="160" rx="26" fill="url(#hero)"/><text x="470" y="280" font-family="Arial, Helvetica, sans-serif" font-size="28" fill="#ffffff" font-weight="700">Case: Horizon Gulf Holdings FZCO</text><text x="470" y="322" font-family="Arial, Helvetica, sans-serif" font-size="19" fill="#dbeafe">Risk score: Medium · Jurisdictions: UAE, UK · Sources checked: 128</text><rect x="1120" y="246" width="210" height="50" rx="12" fill="#e2e8f0"/><text x="1170" y="279" font-family="Arial, Helvetica, sans-serif" font-size="20" fill="#0f172a" font-weight="700">Export report</text><rect x="420" y="410" width="300" height="210" rx="22" fill="#f8fafc" stroke="#dbe4ef"/><text x="455" y="456" font-family="Arial, Helvetica, sans-serif" font-size="24" fill="#0f172a" font-weight="700">Risk overview</text><circle cx="570" cy="535" r="62" fill="none" stroke="#cbd5e1" stroke-width="18"/><path d="M570 473 A62 62 0 1 1 527 578" fill="none" stroke="#2563eb" stroke-width="18" stroke-linecap="round"/><text x="542" y="544" font-family="Arial, Helvetica, sans-serif" font-size="34" fill="#0f172a" font-weight="700">64</text><rect x="755" y="410" width="300" height="210" rx="22" fill="#f8fafc" stroke="#dbe4ef"/><text x="790" y="456" font-family="Arial, Helvetica, sans-serif" font-size="24" fill="#0f172a" font-weight="700">Ownership map</text><circle cx="840" cy="545" r="28" fill="#dbeafe"/><circle cx="970" cy="505" r="24" fill="#bfdbfe"/><circle cx="975" cy="590" r="24" fill="#cbd5e1"/><line x1="866" y1="535" x2="946" y2="511" stroke="#94a3b8" stroke-width="6"/><line x1="866" y1="555" x2="948" y2="586" stroke="#94a3b8" stroke-width="6"/><text x="814" y="548" font-family="Arial, Helvetica, sans-serif" font-size="16" fill="#0f172a" font-weight="700">Entity</text><text x="949" y="509" font-family="Arial, Helvetica, sans-serif" font-size="15" fill="#0f172a">UBO 1</text><text x="948" y="594" font-family="Arial, Helvetica, sans-serif" font-size="15" fill="#0f172a">UBO 2</text><rect x="1090" y="410" width="300" height="210" rx="22" fill="#f8fafc" stroke="#dbe4ef"/><text x="1125" y="456" font-family="Arial, Helvetica, sans-serif" font-size="24" fill="#0f172a" font-weight="700">Screening status</text><rect x="1125" y="500" width="210" height="16" rx="8" fill="#dbeafe"/><rect x="1125" y="534" width="170" height="16" rx="8" fill="#e2e8f0"/><rect x="1125" y="568" width="230" height="16" rx="8" fill="#dbe4ef"/><text x="1125" y="625" font-family="Arial, Helvetica, sans-serif" font-size="18" fill="#334155">Sanctions clear · PEP review required · Media watch active</text><rect x="420" y="655" width="970" height="210" rx="22" fill="#f8fafc" stroke="#dbe4ef"/><text x="455" y="702" font-family="Arial, Helvetica, sans-serif" font-size="24" fill="#0f172a" font-weight="700">Analyst notes</text><rect x="455" y="735" width="900" height="16" rx="8" fill="#cbd5e1"/><rect x="455" y="770" width="860" height="16" rx="8" fill="#dbe4ef"/><rect x="455" y="805" width="790" height="16" rx="8" fill="#e2e8f0"/></svg>
