<svg xmlns="http://www.w3.org/2000/svg" width="1400" height="900" viewBox="0 0 1400 900"><defs><linearGradient id="bg" x1="0" y1="0" x2="1" y2="1"><stop offset="0%" stop-color="#1d4ed8"/><stop offset="100%" stop-color="#cbd5e1"/></linearGradient><linearGradient id="panel" x1="0" y1="0" x2="1" y2="1"><stop offset="0%" stop-color="#ffffff"/><stop offset="100%" stop-color="#f8fafc"/></linearGradient></defs><rect width="1400" height="900" fill="#eef2f7"/><rect x="80" y="70" width="1240" height="760" rx="34" fill="url(#panel)" stroke="#cbd5e1" stroke-width="2"/><rect x="80" y="70" width="1240" height="110" rx="34" fill="url(#bg)"/><circle cx="140" cy="126" r="10" fill="#ffffff" opacity="0.85"/><circle cx="172" cy="126" r="10" fill="#ffffff" opacity="0.6"/><circle cx="204" cy="126" r="10" fill="#ffffff" opacity="0.35"/><text x="260" y="135" font-family="Arial, Helvetica, sans-serif" font-size="34" fill="#ffffff" font-weight="700">Next Horizons</text><text x="260" y="178" font-family="Arial, Helvetica, sans-serif" font-size="16" fill="#e2e8f0">Website redesign concept</text><rect x="140" y="220" width="520" height="420" rx="22" fill="#f8fafc" stroke="#dbe4ef"/><text x="180" y="290" font-family="Arial, Helvetica, sans-serif" font-size="52" fill="#0f172a" font-weight="700">Corporate Advisory</text><text x="180" y="350" font-family="Arial, Helvetica, sans-serif" font-size="26" fill="#475569">Clear service pages, strong trust signals and concise calls to action.</text><rect x="180" y="410" width="210" height="54" rx="12" fill="#1d4ed8"/><text x="222" y="446" font-family="Arial, Helvetica, sans-serif" font-size="22" fill="#ffffff" font-weight="700">Request proposal</text><rect x="410" y="410" width="170" height="54" rx="12" fill="#e2e8f0"/><text x="455" y="446" font-family="Arial, Helvetica, sans-serif" font-size="22" fill="#0f172a" font-weight="700">View work</text><rect x="180" y="520" width="420" height="12" rx="6" fill="#cbd5e1"/><rect x="180" y="560" width="360" height="12" rx="6" fill="#dbe4ef"/><rect x="180" y="600" width="300" height="12" rx="6" fill="#e2e8f0"/><rect x="730" y="220" width="520" height="500" rx="28" fill="#ffffff" stroke="#dbe4ef"/><rect x="770" y="270" width="440" height="180" rx="22" fill="url(#bg)"/><rect x="770" y="490" width="205" height="180" rx="20" fill="#f8fafc" stroke="#dbe4ef"/><rect x="1005" y="490" width="205" height="180" rx="20" fill="#f8fafc" stroke="#dbe4ef"/><rect x="810" y="530" width="120" height="14" rx="7" fill="#94a3b8"/><rect x="810" y="570" width="135" height="14" rx="7" fill="#cbd5e1"/><rect x="1045" y="530" width="120" height="14" rx="7" fill="#94a3b8"/><rect x="1045" y="570" width="135" height="14" rx="7" fill="#cbd5e1"/><rect x="810" y="315" width="170" height="18" rx="9" fill="#ffffff" opacity="0.85"/><rect x="810" y="350" width="240" height="16" rx="8" fill="#ffffff" opacity="0.55"/><rect x="810" y="386" width="140" height="16" rx="8" fill="#ffffff" opacity="0.35"/></svg>
