<svg xmlns="http://www.w3.org/2000/svg" viewBox="0 0 1200 900" width="1200" height="900">
  <rect width="1200" height="900" fill="#f3f0ea"/>
  <!-- Header bar -->
  <rect x="0" y="0" width="1200" height="80" fill="#5a4f3a" opacity="0.08"/>
  <rect x="40" y="28" width="120" height="24" rx="4" fill="#5a4f3a" opacity="0.4"/>
  <rect x="920" y="32" width="60" height="16" rx="2" fill="#5a4f3a" opacity="0.3"/>
  <rect x="1000" y="32" width="60" height="16" rx="2" fill="#5a4f3a" opacity="0.3"/>
  <rect x="1080" y="32" width="60" height="16" rx="2" fill="#5a4f3a" opacity="0.3"/>
  <!-- Hero block -->
  <rect x="80" y="160" width="660" height="60" rx="6" fill="#5a4f3a" opacity="0.6"/>
  <rect x="80" y="240" width="540" height="20" rx="4" fill="#5a4f3a" opacity="0.3"/>
  <rect x="80" y="270" width="480" height="20" rx="4" fill="#5a4f3a" opacity="0.3"/>
  <rect x="80" y="320" width="180" height="48" rx="8" fill="#9ca3af"/>
  <!-- Hero illustration block -->
  <rect x="740" y="160" width="360" height="280" rx="12" fill="#5a4f3a" opacity="0.15"/>
  <!-- Three feature cards -->
  <rect x="80" y="500" width="320" height="200" rx="12" fill="#5a4f3a" opacity="0.1"/>
  <rect x="440" y="500" width="320" height="200" rx="12" fill="#5a4f3a" opacity="0.1"/>
  <rect x="800" y="500" width="320" height="200" rx="12" fill="#5a4f3a" opacity="0.1"/>
  <!-- Footer -->
  <rect x="0" y="820" width="1200" height="80" fill="#5a4f3a" opacity="0.08"/>
  <!-- Big diagonal label so it's clear this is a placeholder -->
  <text x="600.0" y="460.0" text-anchor="middle" font-family="sans-serif" font-size="64" font-weight="700" fill="#5a4f3a" opacity="0.18">BEFORE</text>
  <text x="600.0" y="520.0" text-anchor="middle" font-family="sans-serif" font-size="22" fill="#5a4f3a" opacity="0.5">Services — current design</text>
</svg>